<?xml version="1.0" encoding="UTF-8"?> <svg xmlns="http://www.w3.org/2000/svg" width="255" height="258" viewBox="0 0 255 258" fill="none"> <path d="M196.853 255.89L250.4 56.7753M196.853 255.89L3.46082 195.194M196.853 255.89L95.2903 162.932M196.853 255.89L192.923 157.16M196.853 255.89L100.664 209.642M250.4 56.7753L60.4573 10.2444M250.4 56.7753L95.2903 162.932M250.4 56.7753L192.923 157.16M250.4 56.7753L131.763 77.56M60.4573 10.2444L3.46082 195.194M60.4573 10.2444L47.4385 120.323M60.4573 10.2444L95.2903 162.932M60.4573 10.2444L131.763 77.56M3.46082 195.194L95.2903 162.932M3.46082 195.194L47.4385 120.323M3.46082 195.194L100.664 209.642M95.2903 162.932L47.4385 120.323M95.2903 162.932L192.923 157.16M95.2903 162.932L100.664 209.642M95.2903 162.932L131.763 77.56" stroke="black" stroke-width="2" stroke-dasharray="3 5"></path> </svg> 