<?xml version="1.0" encoding="UTF-8"?> <svg xmlns="http://www.w3.org/2000/svg" width="300" height="293" viewBox="0 0 300 293" fill="none"> <path d="M205.276 245.234L253.804 195.95M205.276 245.234L150.943 240.937M205.276 245.234L178.644 243.128L211.098 192.572M113.635 110.541L127.435 156.343M113.635 110.541L148.816 62.2107M113.635 110.541L63.8694 86.2816M253.804 195.95L245.049 137.767L185.422 157.441M253.804 195.95L211.098 192.572M185.422 157.441L150.943 240.937M185.422 157.441L211.098 192.572M185.422 157.441L193.292 131.35M150.943 240.937L168.182 199.189L155.435 103.385M150.943 240.937L109.967 237.698L62.2028 180.795L78.0774 148.952M150.943 240.937L127.435 156.343M150.943 240.937L132.473 239.477L78.0774 148.952M193.292 131.35L212.444 124.154L231.733 115.227M193.292 131.35L155.435 103.385M231.733 115.227L205.953 66.73L155.435 103.385M231.733 115.227L220.602 145.833M155.435 103.385L148.816 62.2107M78.0774 148.952L127.435 156.343M148.816 62.2107L95.1184 28.9388L63.8694 86.2816M63.8694 86.2816L92.9985 151.186" stroke="#F4C930" stroke-dasharray="3 5"></path> </svg> 