<?xml version="1.0" encoding="UTF-8"?> <svg xmlns="http://www.w3.org/2000/svg" width="27" height="27" viewBox="0 0 27 27" fill="none"> <path d="M23.046 3.95402C20.4961 1.40426 17.106 0 13.5 0C9.89402 0 6.50389 1.40426 3.95402 3.95402C1.40426 6.50389 0 9.89402 0 13.5C0 17.106 1.40426 20.4961 3.95402 23.046C6.50389 25.5957 9.89402 27 13.5 27C17.106 27 20.4961 25.5957 23.046 23.046C25.5957 20.4961 27 17.106 27 13.5C27 9.89402 25.5957 6.50389 23.046 3.95402ZM13.5 24.8906C7.21918 24.8906 2.10938 19.7808 2.10938 13.5C2.10938 7.21918 7.21918 2.10938 13.5 2.10938C19.7808 2.10938 24.8906 7.21918 24.8906 13.5C24.8906 19.7808 19.7808 24.8906 13.5 24.8906Z" fill="#2D2D2D"></path> <path d="M14.5547 12.4453V4.00781H12.4453V14.5547H20.4609V12.4453H14.5547Z" fill="#2D2D2D"></path> </svg> 