<?xml version="1.0" encoding="UTF-8"?> <svg xmlns="http://www.w3.org/2000/svg" width="486" height="491" viewBox="0 0 486 491" fill="none"> <path d="M0.442647 211.403C7.90588 158.263 32.5262 109.054 70.5222 71.3337C108.518 33.6133 157.789 9.46729 210.767 2.60424C263.745 -4.2588 317.5 6.54062 363.777 33.3439C410.055 60.1471 446.294 101.472 466.931 150.972C487.567 200.471 491.459 255.408 478.008 307.345C464.557 359.282 434.508 405.347 392.476 438.464C350.443 471.582 298.752 489.921 245.341 490.665C191.929 491.409 139.752 474.517 96.8212 442.583L183.997 324.291C201.142 337.044 221.979 343.79 243.309 343.492C264.639 343.195 285.283 335.871 302.069 322.646C318.855 309.42 330.855 291.024 336.226 270.283C341.598 249.541 340.044 227.602 331.803 207.834C323.561 188.066 309.089 171.563 290.608 160.859C272.127 150.155 250.659 145.842 229.502 148.583C208.345 151.323 188.669 160.966 173.495 176.03C158.321 191.094 148.488 210.746 145.508 231.967L0.442647 211.403Z" fill="#F4C930"></path> </svg> 