<?xml version="1.0" encoding="UTF-8"?> <svg xmlns="http://www.w3.org/2000/svg" width="222" height="222" viewBox="0 0 222 222" fill="none"> <path d="M106.774 0.99998L219.392 110.351M106.774 0.99998L3.95142 116.064M106.774 0.99998L76.58 101.375M106.774 0.99998L142.681 67.1004M106.774 0.99998L61.891 68.7325M219.392 110.351L113.305 214.806M219.392 110.351L76.58 101.375M219.392 110.351L142.681 67.1004M219.392 110.351L133.704 142.993M113.305 214.806L3.95142 116.064M113.305 214.806L61.891 147.89M113.305 214.806L76.58 101.375M113.305 214.806L133.704 142.993M3.95142 116.064L76.58 101.375M3.95142 116.064L61.891 147.89M3.95142 116.064L61.891 68.7325M76.58 101.375L61.891 147.89M76.58 101.375L142.681 67.1004M76.58 101.375L61.891 68.7325M76.58 101.375L133.704 142.993" stroke="#ED675F" stroke-dasharray="1 1"></path> </svg> 