<?xml version="1.0" encoding="UTF-8"?> <svg xmlns="http://www.w3.org/2000/svg" width="333" height="330" viewBox="0 0 333 330" fill="none"> <path d="M167.068 300.607L77.5664 250.908M167.068 300.607L278.198 216.635L297.223 159.498M167.068 300.607L209.434 242.089M77.5664 250.908L25.7201 166.392L61.8772 106.205M77.5664 250.908L115.39 184.512M61.8772 106.205L156.829 24.2079M61.8772 106.205L115.39 184.512M156.829 24.2079L245.498 77.0114L297.223 159.498M156.829 24.2079L198.165 103.235M297.223 159.498L209.434 242.089M297.223 159.498L198.165 103.235M209.434 242.089L115.39 184.512M198.165 103.235L115.39 184.512" stroke="#F4C930" stroke-width="2" stroke-dasharray="3 5"></path> </svg> 