<?xml version="1.0" encoding="UTF-8"?> <svg xmlns="http://www.w3.org/2000/svg" width="127" height="128" viewBox="0 0 127 128" fill="none"> <path d="M79.8462 102.822L99.8927 86.2869L106.607 63.1596M79.8462 102.822L51.0266 102.822L26.4072 91.1367M79.8462 102.822L78.6302 88.8986L91.686 66.8903M78.2572 88.5256L49.5345 85.1684M106.607 63.1596L96.9084 32.9449L79.846 24.7387M106.607 63.1596L91.686 66.8903M79.846 24.7387L45.8045 22.1277L28.2727 40.0327M79.846 24.7387L76.7651 40.4058M28.2727 40.0327L17.8282 63.1596L26.4072 91.1367M28.2727 40.0327L50.2806 50.8504M26.4072 91.1367L49.5345 85.1684M91.686 66.8903L76.7651 40.4058M76.7651 40.4058L50.2806 50.8504M50.2806 50.8504L49.5345 85.1684" stroke="black" stroke-width="2" stroke-dasharray="3 5"></path> </svg> 