<?xml version="1.0" encoding="UTF-8"?> <svg xmlns="http://www.w3.org/2000/svg" width="384" height="382" viewBox="0 0 384 382" fill="none"> <path d="M29.4475 122.597L28.1245 147.81M29.4475 122.597L81.8971 86.7186M29.4475 122.597L68.7246 117.939M356.988 255.227L300.26 296.123M356.988 255.227L360.692 241.071L346.93 183.673M356.988 255.227L348.299 246.597M356.988 255.227L305.709 285.422M28.1245 147.81L36.0843 196.567M28.1245 147.81L28.5708 139.306L58.9809 138.755M28.1245 147.81L44.9614 175.463M153.606 292.003L300.26 296.123M153.606 292.003L83.6188 253.561L36.0843 196.567M153.606 292.003L122.514 231.777M153.606 292.003L237.288 283.057M300.26 296.123L305.709 285.422M36.0843 196.567L44.9614 175.463M346.93 183.673L298.826 128.417M346.93 183.673L341.186 192.352M298.826 128.417L233.154 85.6301L81.8971 86.7186M298.826 128.417L296.541 135.35M81.8971 86.7186L68.7246 117.939M68.7246 117.939L131.106 126.964M68.7246 117.939L58.9809 138.755M131.106 126.964L215.655 118.305M131.106 126.964L123.392 150.371M215.655 118.305L184.981 85.9768M215.655 118.305L296.541 135.35M215.655 118.305L245.032 183.731M296.541 135.35L341.186 192.352M341.186 192.352L348.299 246.597M341.186 192.352L327.157 226.174M348.299 246.597L309.994 272.418M348.299 246.597L327.157 226.174M309.994 272.418L327.157 226.174M309.994 272.418L241.573 270.053M309.994 272.418L305.709 285.422M327.157 226.174L245.032 183.731M245.032 183.731L179.892 212.242M179.892 212.242L123.392 150.371M179.892 212.242L122.514 231.777M179.892 212.242L241.573 270.053M123.392 150.371L58.9809 138.755M58.9809 138.755L44.9614 175.463M44.9614 175.463L122.514 231.777M241.573 270.053L237.288 283.057M237.288 283.057L305.709 285.422" stroke="#4DC2EA" stroke-width="2" stroke-dasharray="3 5"></path> </svg> 