<?xml version="1.0" encoding="UTF-8"?> <svg xmlns="http://www.w3.org/2000/svg" width="520" height="749" viewBox="0 0 520 749" fill="none"> <path d="M267.921 746.299L411.522 440.248M267.921 746.299L112.417 462.536L104.38 411.757M267.921 746.299L284.813 426.77M267.921 746.299L146.816 444.065M104.38 411.757L252.721 98M104.38 411.757L146.816 444.065M252.721 98L413.048 385.564L411.522 440.248M252.721 98L340.182 389.924M252.721 98L171.395 394.012M411.522 440.248L340.182 389.924M284.813 426.77L340.182 389.924M284.813 426.77L171.395 394.012M171.395 394.012L146.816 444.065" stroke="black" stroke-width="2" stroke-dasharray="3 5"></path> <line x1="344.626" y1="167.668" x2="384.626" y2="122.668" stroke="black" stroke-dasharray="3 5"></line> <line x1="164.604" y1="205.305" x2="114.604" y2="140.305" stroke="black" stroke-dasharray="3 5"></line> <line x1="114.635" y1="301.342" x2="69.6352" y2="253.342" stroke="black" stroke-dasharray="3 5"></line> <line x1="174.552" y1="98.2214" x2="134.552" y2="17.2214" stroke="black" stroke-dasharray="3 5"></line> <line x1="294.506" y1="62.9204" x2="304.506" y2="0.920386" stroke="black" stroke-dasharray="3 5"></line> <line x1="414.63" y1="307.664" x2="464.63" y2="252.664" stroke="black" stroke-dasharray="3 5"></line> </svg> 