<?xml version="1.0" encoding="UTF-8"?> <svg xmlns="http://www.w3.org/2000/svg" width="453" height="457" viewBox="0 0 453 457" fill="none"> <path d="M284.601 386.367L395.6 257.287M284.601 386.367L116.249 361.068M284.601 386.367L258.796 320.66M258.796 320.66L395.6 257.287M258.796 320.66L285.005 154.758M258.796 320.66L131.852 211.656M258.796 320.66L116.249 361.068M395.6 257.287L335.516 95.5578M395.6 257.287L285.005 154.758M335.516 95.5578L167.62 71.4844M335.516 95.5578L285.005 154.758M167.62 71.4844L56.1653 199.339M167.62 71.4844L285.005 154.758M167.62 71.4844L131.852 211.656M56.1653 199.339L116.249 361.068M56.1653 199.339L131.852 211.656M116.249 361.068L131.852 211.656M285.005 154.758L131.852 211.656" stroke="#888888" stroke-width="2" stroke-dasharray="3 5"></path> </svg> 