<?xml version="1.0" encoding="UTF-8"?> <svg xmlns="http://www.w3.org/2000/svg" width="279" height="283" viewBox="0 0 279 283" fill="none"> <path d="M130.324 119.853L158.758 114.431M130.324 119.853L55.8527 114.431M130.324 119.853L139.802 186.194M269.784 119.853L169.59 253.895L161.466 257.957M269.784 119.853L261.662 104.958L204.794 69.7534M269.784 119.853L185.839 175.362M269.784 119.853L206.149 79.2261M204.794 69.7534L112.718 64.3359L51.7864 103.601M204.794 69.7534L206.149 79.2261M51.7864 103.601L5.74944 161.824L16.5861 178.07M51.7864 103.601L55.8527 114.431M16.5861 178.07L147.926 256.603L161.466 257.957M16.5861 178.07L55.8527 114.431M16.5861 178.07L139.802 186.194M161.466 257.957L185.839 175.362M161.466 257.957L139.802 186.194M185.839 175.362L158.758 114.431M185.839 175.362L139.802 186.194M206.149 79.2261L158.758 114.431" stroke="black" stroke-width="2" stroke-dasharray="3 5"></path> </svg> 