<?xml version="1.0" encoding="UTF-8"?> <svg xmlns="http://www.w3.org/2000/svg" width="230" height="235" viewBox="0 0 230 235" fill="none"> <path d="M136.966 220.632L228.436 90.1013M136.966 220.632L4.30244 146.308M136.966 220.632L113.186 184.902M136.966 220.632L158.648 174.458M187.448 150.251L195.898 125.606M228.436 90.1013L190.15 66.7846L140.021 56.0095L95.3753 59.3146L59.2628 76.615M228.436 90.1013L198.835 85.8652M59.2628 76.615L27.56 105.99M59.2628 76.615L55.016 89.9558M27.56 105.99L4.30244 146.308M27.56 105.99L55.016 89.9558M4.30244 146.308L35.3658 130.172M4.30244 146.308L28.9183 153.743M113.186 184.902L100.242 158.832M113.186 184.902L62.5631 156.854M113.186 184.902L137.749 154.715M100.242 158.832L99.4332 130.383M100.242 158.832L62.5631 156.854M100.242 158.832L137.749 154.715M99.4332 130.383L76.1847 99.5222M99.4332 130.383L137.749 154.715M99.4332 130.383L119.788 95.2321M76.1847 99.5222L55.016 89.9558M76.1847 99.5222L119.788 95.2321M76.1847 99.5222L35.3658 130.172M55.016 89.9558L35.3658 130.172M35.3658 130.172L28.9183 153.743M35.3658 130.172L62.5631 156.854M28.9183 153.743L62.5631 156.854M62.5631 156.854L77.6681 187.411M137.749 154.715L169.915 141.598M137.749 154.715L157 116.544M137.749 154.715L158.648 174.458M169.915 141.598L195.898 125.606M169.915 141.598L157 116.544M169.915 141.598L158.648 174.458M195.898 125.606L218.253 104.634L198.835 85.8652M195.898 125.606L157 116.544M195.898 125.606L158.648 174.458M195.898 125.606L198.835 85.8652M198.835 85.8652L162.552 61.4766L152.912 80.054M198.835 85.8652L152.912 80.054M152.912 80.054L157 116.544M157 116.544L151.896 80.0829L119.788 95.2321M157 116.544L119.788 95.2321" stroke="#53D28E" stroke-dasharray="1 1"></path> </svg> 