<?xml version="1.0" encoding="UTF-8"?> <svg xmlns="http://www.w3.org/2000/svg" width="165" height="165" viewBox="0 0 165 165" fill="none"> <mask id="path-1-inside-1" fill="white"> <path d="M82.5 6.22858e-06C66.7292 6.91794e-06 51.2888 4.52033 38.008 13.0255C24.7271 21.5306 14.1624 33.6642 7.56516 47.9888C0.96796 62.3135 -1.3852 78.2289 0.784436 93.8498C2.95407 109.471 9.55559 124.142 19.807 136.127C30.0583 148.111 43.53 156.906 58.626 161.47C73.722 166.034 89.8099 166.175 104.984 161.877C120.158 157.579 133.782 149.022 144.242 137.219C154.702 125.417 161.56 110.863 164.004 95.2829L162.354 95.0241C159.96 110.289 153.24 124.548 142.992 136.112C132.743 147.675 119.395 156.059 104.529 160.27C89.6619 164.481 73.8997 164.343 59.1092 159.872C44.3188 155.4 31.1198 146.783 21.076 135.041C11.0321 123.299 4.56423 108.925 2.43851 93.62C0.312791 78.3154 2.61832 62.7221 9.08198 48.6874C15.5456 34.6527 25.8966 22.7648 38.9086 14.4318C51.9206 6.09878 67.0484 1.66996 82.5 1.66996L82.5 6.22858e-06Z"></path> </mask> <path d="M82.5 6.22858e-06C66.7292 6.91794e-06 51.2888 4.52033 38.008 13.0255C24.7271 21.5306 14.1624 33.6642 7.56516 47.9888C0.96796 62.3135 -1.3852 78.2289 0.784436 93.8498C2.95407 109.471 9.55559 124.142 19.807 136.127C30.0583 148.111 43.53 156.906 58.626 161.47C73.722 166.034 89.8099 166.175 104.984 161.877C120.158 157.579 133.782 149.022 144.242 137.219C154.702 125.417 161.56 110.863 164.004 95.2829L162.354 95.0241C159.96 110.289 153.24 124.548 142.992 136.112C132.743 147.675 119.395 156.059 104.529 160.27C89.6619 164.481 73.8997 164.343 59.1092 159.872C44.3188 155.4 31.1198 146.783 21.076 135.041C11.0321 123.299 4.56423 108.925 2.43851 93.62C0.312791 78.3154 2.61832 62.7221 9.08198 48.6874C15.5456 34.6527 25.8966 22.7648 38.9086 14.4318C51.9206 6.09878 67.0484 1.66996 82.5 1.66996L82.5 6.22858e-06Z" stroke="black" stroke-width="2" mask="url(#path-1-inside-1)"></path> </svg> 