<?xml version="1.0" encoding="UTF-8"?> <svg xmlns="http://www.w3.org/2000/svg" width="219" height="222" viewBox="0 0 219 222" fill="none"> <path d="M102.003 93.4971L124.383 89.229M102.003 93.4971L43.387 89.229M102.003 93.4971L109.463 145.713M211.771 93.4971L132.909 199L126.515 202.197M211.771 93.4971L205.378 81.773L160.617 54.064M211.771 93.4971L145.698 137.187M211.771 93.4971L161.684 61.5199M160.617 54.064L88.1452 49.7999L40.1865 80.7054M160.617 54.064L161.684 61.5199M40.1865 80.7054L3.95116 126.532L12.4806 139.319M40.1865 80.7054L43.387 89.229M12.4806 139.319L115.857 201.132L126.515 202.197M12.4806 139.319L43.387 89.229M12.4806 139.319L109.463 145.713M126.515 202.197L145.698 137.187M126.515 202.197L109.463 145.713M145.698 137.187L124.383 89.229M145.698 137.187L109.463 145.713M161.684 61.5199L124.383 89.229" stroke="#F4C930" stroke-dasharray="1 1"></path> </svg> 