<?xml version="1.0" encoding="UTF-8"?> <svg xmlns="http://www.w3.org/2000/svg" width="691" height="440" viewBox="0 0 691 440" fill="none"> <path d="M249.603 259.633L390.21 298.527L445.876 313.065L607.444 354.887M249.603 259.633L76.232 171.036M249.603 259.633L413.195 79.3811M249.603 259.633L276.136 443.112M322.401 488.559L167.665 432.344L200.976 340.817M322.401 488.559L386.607 481.727L410.612 408.768M322.401 488.559L346.58 425.121M410.612 408.768L607.444 354.887M410.612 408.768L276.136 443.112M607.444 354.887L492.155 188.491M492.155 188.491L413.195 79.3811M492.155 188.491L533.464 69.8387M413.195 79.3811L236.997 125.692L76.232 171.036M76.232 171.036L276.136 443.112M471.296 77.343L533.464 69.8387M471.296 77.343L319.876 16.1844M471.296 77.343L452.675 133.936M533.464 69.8387L381.129 6.86704L319.876 16.1844M319.876 16.1844L284.787 113.131" stroke="#ED675F" stroke-width="2" stroke-dasharray="3 5"></path> </svg> 